<svg id="Layer_1" data-name="Layer 1" xmlns="http://www.w3.org/2000/svg" xmlns:xlink="http://www.w3.org/1999/xlink" viewBox="0 0 2000 1000"><defs><style>.cls-1{fill:none;}.cls-2{clip-path:url(#clip-path);}.cls-3{fill:url(#linear-gradient);}.cls-4{clip-path:url(#clip-path-2);}.cls-5{fill:url(#linear-gradient-2);}</style><clipPath id="clip-path"><path class="cls-1" d="M-433,837.06H-770.84c-69,0-130.73-35.66-165.22-95.39s-34.48-131,0-190.78l168.91-292.56c34.49-59.73,96.25-95.39,165.22-95.39s130.74,35.66,165.22,95.39L-267.8,550.89c34.48,59.73,34.48,131.05,0,190.78S-364,837.06-433,837.06ZM-680.88,308.14-849.79,600.69a90.24,90.24,0,0,0,0,91.17,90.23,90.23,0,0,0,78.95,45.59H-433a90.23,90.23,0,0,0,78.95-45.59,90.24,90.24,0,0,0,0-91.17L-523,308.14a90.21,90.21,0,0,0-78.95-45.59,90.23,90.23,0,0,0-79,45.59Z"/></clipPath><linearGradient id="linear-gradient" x1="-1100.51" y1="500" x2="2199.88" y2="500" gradientUnits="userSpaceOnUse"><stop offset="0" stop-color="#9341ff"/><stop offset="0.26" stop-color="#573be8"/><stop offset="0.52" stop-color="#4e61ff"/><stop offset="0.79" stop-color="#3b7ce8"/><stop offset="1" stop-color="#41baff"/></linearGradient><clipPath id="clip-path-2"><path class="cls-1" d="M487.45,530.84,385.09,353.55a115.61,115.61,0,0,0-200.24,0L82.49,530.84A115.61,115.61,0,0,0,182.62,704.25H387.33A115.61,115.61,0,0,0,487.45,530.84Zm-52.28,85.43a54.68,54.68,0,0,1-47.84,27.62H182.62A55.25,55.25,0,0,1,134.77,561L237.13,383.73a55.25,55.25,0,0,1,95.69,0L435.17,561A54.67,54.67,0,0,1,435.17,616.27Zm172.69-22.84,2.43-2.92A29.37,29.37,0,0,1,651,586.43c11.71,9.1,24.39,13.7,38.48,13.7,29.19,0,44.45-17.51,44.45-52.09V427.71a29.18,29.18,0,0,0-29.18-29.19H652.64a29.17,29.17,0,0,1-29.18-29.18h0a29.18,29.18,0,0,1,29.18-29.19H777a29.18,29.18,0,0,1,29.18,29.19V544c0,77.68-39.06,115.85-113.15,115.85-30.49,0-58.4-8.44-80.18-24.3A29.1,29.1,0,0,1,607.86,593.43Zm267.48-77.27V376.07a35.92,35.92,0,0,1,35.92-35.92h.9a35.92,35.92,0,0,1,35.92,35.92v137.4c0,59.72,26,84.41,70,84.41,44.45,0,70.05-24.69,70.05-84.41V376.07a35.92,35.92,0,0,1,35.92-35.92h0A35.92,35.92,0,0,1,1160,376.07V516.16c0,92.5-53,143.69-142.34,143.69S875.34,608.66,875.34,516.16Zm921.34-176H1697a36.37,36.37,0,0,0-36.37,36.37V618.09A36.37,36.37,0,0,0,1697,654.46h0a36.37,36.37,0,0,0,36.37-36.37V604.17a36.37,36.37,0,0,1,36.37-36.37h26.94c84,0,136.49-43.55,136.49-113.6C1933.17,383.71,1880.64,340.15,1796.68,340.15Zm-4,168.38h-22.9a36.37,36.37,0,0,1-36.37-36.37V435.79a36.37,36.37,0,0,1,36.37-36.37h22.9c44.45,0,66.9,20.21,66.9,54.78C1859.54,488.33,1837.09,508.53,1792.64,508.53ZM1553.11,654.47h-1.57a33.78,33.78,0,0,1-33.77-33.69l-.19-76.57c0-20-26.16-27.42-36.76-10.51h0L1415.9,637.29a36.62,36.62,0,0,1-31,17.18h0a25.4,25.4,0,0,1-21.54-38.84l11.93-19.1,34.4-55.11,53.1-85,44.17-70.72,18.59-29.78.54-.86c16.51-26.46,59.21-15.33,59.21,15.42h0l.75,251A32.9,32.9,0,0,1,1553.11,654.47Zm-194.2-203.24a55.67,55.67,0,0,1-.47,58.23h0l-4.32,6.92a15.18,15.18,0,0,1-25.86-.15h0c-8-13.12-28.17-7.46-28.17,7.9v96.26A34.08,34.08,0,0,1,1266,654.47h0a34.18,34.18,0,0,1-34.18-34.18v-245A35.18,35.18,0,0,1,1267,340.15h5.67A34.2,34.2,0,0,1,1302,356.7Z"/></clipPath><linearGradient id="linear-gradient-2" x1="0" y1="508.53" x2="2000" y2="508.53" xlink:href="#linear-gradient"/></defs><g class="cls-2"><rect class="cls-3" x="-1100.51" y="-325.1" width="3300.39" height="1650.19"/></g><g class="cls-4"><rect class="cls-5" y="8.53" width="2000" height="1000"/></g></svg>